<svg width="140" height="40" viewBox="0 0 140 40" fill="none" xmlns="http://www.w3.org/2000/svg">
<path d="M46.71 25.9615C46.578 25.9615 46.47 25.9195 46.386 25.8355C46.302 25.7515 46.26 25.6435 46.26 25.5115V13.8115C46.26 13.6795 46.302 13.5715 46.386 13.4875C46.47 13.4035 46.578 13.3615 46.71 13.3615H52.2C53.232 13.3615 54.078 13.5055 54.738 13.7935C55.398 14.0815 55.884 14.4955 56.196 15.0355C56.52 15.5635 56.682 16.1935 56.682 16.9255C56.682 17.3575 56.598 17.7415 56.43 18.0775C56.274 18.4015 56.076 18.6715 55.836 18.8875C55.608 19.1035 55.392 19.2595 55.188 19.3555C55.644 19.5715 56.046 19.9255 56.394 20.4175C56.754 20.9095 56.934 21.4855 56.934 22.1455C56.934 22.9375 56.754 23.6215 56.394 24.1975C56.046 24.7615 55.53 25.1995 54.846 25.5115C54.174 25.8115 53.346 25.9615 52.362 25.9615H46.71ZM49.482 23.6215H52.002C52.518 23.6215 52.908 23.4715 53.172 23.1715C53.436 22.8715 53.568 22.5295 53.568 22.1455C53.568 21.7255 53.43 21.3715 53.154 21.0835C52.89 20.7955 52.506 20.6515 52.002 20.6515H49.482V23.6215ZM49.482 18.3655H51.84C52.332 18.3655 52.698 18.2395 52.938 17.9875C53.19 17.7355 53.316 17.4115 53.316 17.0155C53.316 16.6315 53.19 16.3195 52.938 16.0795C52.698 15.8275 52.332 15.7015 51.84 15.7015H49.482V18.3655Z" fill="black"/>
<path d="M59.3838 25.9615C59.2518 25.9615 59.1438 25.9195 59.0598 25.8355C58.9758 25.7515 58.9338 25.6435 58.9338 25.5115V13.8115C58.9338 13.6795 58.9758 13.5715 59.0598 13.4875C59.1438 13.4035 59.2518 13.3615 59.3838 13.3615H64.4238C65.4198 13.3615 66.2838 13.5175 67.0158 13.8295C67.7598 14.1295 68.3358 14.5855 68.7438 15.1975C69.1638 15.8095 69.3738 16.5835 69.3738 17.5195C69.3738 18.4435 69.1638 19.2055 68.7438 19.8055C68.3358 20.4055 67.7598 20.8495 67.0158 21.1375C66.2838 21.4255 65.4198 21.5695 64.4238 21.5695H62.2818V25.5115C62.2818 25.6435 62.2338 25.7515 62.1378 25.8355C62.0538 25.9195 61.9458 25.9615 61.8138 25.9615H59.3838ZM62.2278 19.0855H64.3338C64.8498 19.0855 65.2578 18.9535 65.5578 18.6895C65.8698 18.4255 66.0258 18.0235 66.0258 17.4835C66.0258 17.0275 65.8938 16.6435 65.6298 16.3315C65.3658 16.0195 64.9338 15.8635 64.3338 15.8635H62.2278V19.0855ZM71.3499 25.9615C71.2179 25.9615 71.1099 25.9195 71.0259 25.8355C70.9419 25.7515 70.8999 25.6435 70.8999 25.5115V13.6315C70.8999 13.4995 70.9419 13.3915 71.0259 13.3075C71.1099 13.2235 71.2179 13.1815 71.3499 13.1815H73.4739C73.6059 13.1815 73.7139 13.2235 73.7979 13.3075C73.8819 13.3915 73.9239 13.4995 73.9239 13.6315V25.5115C73.9239 25.6435 73.8819 25.7515 73.7979 25.8355C73.7139 25.9195 73.6059 25.9615 73.4739 25.9615H71.3499ZM78.8583 26.1415C78.2103 26.1415 77.6283 26.0215 77.1123 25.7815C76.6083 25.5295 76.2063 25.1935 75.9063 24.7735C75.6063 24.3535 75.4563 23.8795 75.4563 23.3515C75.4563 22.4995 75.8043 21.8275 76.5003 21.3355C77.1963 20.8315 78.1203 20.4895 79.2723 20.3095L81.5223 19.9675V19.7155C81.5223 19.2835 81.4323 18.9535 81.2523 18.7255C81.0723 18.4975 80.7423 18.3835 80.2623 18.3835C79.9263 18.3835 79.6503 18.4495 79.4343 18.5815C79.2303 18.7135 79.0683 18.8935 78.9483 19.1215C78.8403 19.2775 78.6903 19.3555 78.4983 19.3555H76.4823C76.3503 19.3555 76.2483 19.3195 76.1763 19.2475C76.1043 19.1635 76.0743 19.0675 76.0863 18.9595C76.0863 18.7435 76.1643 18.4975 76.3203 18.2215C76.4883 17.9335 76.7403 17.6515 77.0763 17.3755C77.4123 17.0995 77.8443 16.8715 78.3723 16.6915C78.9003 16.5115 79.5363 16.4215 80.2803 16.4215C81.0603 16.4215 81.7263 16.5115 82.2783 16.6915C82.8303 16.8715 83.2743 17.1235 83.6103 17.4475C83.9583 17.7715 84.2163 18.1555 84.3843 18.5995C84.5523 19.0315 84.6363 19.5115 84.6363 20.0395V25.5115C84.6363 25.6435 84.5883 25.7515 84.4923 25.8355C84.4083 25.9195 84.3063 25.9615 84.1863 25.9615H82.0983C81.9663 25.9615 81.8583 25.9195 81.7743 25.8355C81.6903 25.7515 81.6483 25.6435 81.6483 25.5115V24.8815C81.4923 25.1095 81.2823 25.3195 81.0183 25.5115C80.7543 25.7035 80.4423 25.8535 80.0823 25.9615C79.7343 26.0815 79.3263 26.1415 78.8583 26.1415ZM79.7043 24.0895C80.0523 24.0895 80.3643 24.0175 80.6403 23.8735C80.9283 23.7175 81.1503 23.4835 81.3063 23.1715C81.4743 22.8475 81.5583 22.4455 81.5583 21.9655V21.7135L80.0283 21.9835C79.4643 22.0795 79.0503 22.2295 78.7863 22.4335C78.5343 22.6255 78.4083 22.8535 78.4083 23.1175C78.4083 23.3215 78.4683 23.4955 78.5883 23.6395C78.7083 23.7835 78.8643 23.8975 79.0563 23.9815C79.2483 24.0535 79.4643 24.0895 79.7043 24.0895ZM91.3852 25.9615C90.6172 25.9615 89.9512 25.8415 89.3872 25.6015C88.8352 25.3495 88.4092 24.9655 88.1092 24.4495C87.8092 23.9215 87.6592 23.2435 87.6592 22.4155V18.9595H86.2552C86.1232 18.9595 86.0092 18.9175 85.9132 18.8335C85.8292 18.7495 85.7872 18.6415 85.7872 18.5095V17.0515C85.7872 16.9195 85.8292 16.8115 85.9132 16.7275C86.0092 16.6435 86.1232 16.6015 86.2552 16.6015H87.6592V13.6315C87.6592 13.4995 87.7012 13.3915 87.7852 13.3075C87.8812 13.2235 87.9892 13.1815 88.1092 13.1815H90.1972C90.3292 13.1815 90.4372 13.2235 90.5212 13.3075C90.6052 13.3915 90.6472 13.4995 90.6472 13.6315V16.6015H92.8972C93.0292 16.6015 93.1372 16.6435 93.2212 16.7275C93.3052 16.8115 93.3472 16.9195 93.3472 17.0515V18.5095C93.3472 18.6415 93.3052 18.7495 93.2212 18.8335C93.1372 18.9175 93.0292 18.9595 92.8972 18.9595H90.6472V22.1635C90.6472 22.5715 90.7252 22.8955 90.8812 23.1355C91.0372 23.3755 91.3012 23.4955 91.6732 23.4955H93.0592C93.1912 23.4955 93.2992 23.5375 93.3832 23.6215C93.4672 23.7055 93.5092 23.8135 93.5092 23.9455V25.5115C93.5092 25.6435 93.4672 25.7515 93.3832 25.8355C93.2992 25.9195 93.1912 25.9615 93.0592 25.9615H91.3852ZM96.5115 25.9615C96.3915 25.9615 96.2835 25.9195 96.1875 25.8355C96.1035 25.7515 96.0615 25.6435 96.0615 25.5115V18.9595H94.6935C94.5615 18.9595 94.4535 18.9175 94.3695 18.8335C94.2855 18.7495 94.2435 18.6415 94.2435 18.5095V17.0515C94.2435 16.9195 94.2855 16.8115 94.3695 16.7275C94.4535 16.6435 94.5615 16.6015 94.6935 16.6015H96.0615V16.0255C96.0615 15.2095 96.2175 14.5555 96.5295 14.0635C96.8535 13.5595 97.3095 13.1995 97.8975 12.9835C98.4855 12.7555 99.1875 12.6415 100.004 12.6415H101.408C101.528 12.6415 101.63 12.6835 101.714 12.7675C101.81 12.8515 101.858 12.9595 101.858 13.0915V14.5495C101.858 14.6815 101.81 14.7895 101.714 14.8735C101.63 14.9575 101.528 14.9995 101.408 14.9995H100.148C99.7395 14.9995 99.4515 15.0955 99.2835 15.2875C99.1275 15.4795 99.0495 15.7555 99.0495 16.1155V16.6015H101.228C101.348 16.6015 101.45 16.6435 101.534 16.7275C101.63 16.8115 101.678 16.9195 101.678 17.0515V18.5095C101.678 18.6415 101.63 18.7495 101.534 18.8335C101.45 18.9175 101.348 18.9595 101.228 18.9595H99.0495V25.5115C99.0495 25.6435 99.0075 25.7515 98.9235 25.8355C98.8395 25.9195 98.7315 25.9615 98.5995 25.9615H96.5115ZM107.267 26.1415C106.259 26.1415 105.407 25.9795 104.711 25.6555C104.027 25.3315 103.499 24.8695 103.127 24.2695C102.767 23.6575 102.563 22.9315 102.515 22.0915C102.503 21.8515 102.497 21.5815 102.497 21.2815C102.497 20.9695 102.503 20.6995 102.515 20.4715C102.563 19.6195 102.779 18.8935 103.163 18.2935C103.547 17.6935 104.081 17.2315 104.765 16.9075C105.461 16.5835 106.295 16.4215 107.267 16.4215C108.251 16.4215 109.085 16.5835 109.769 16.9075C110.465 17.2315 111.005 17.6935 111.389 18.2935C111.773 18.8935 111.989 19.6195 112.037 20.4715C112.049 20.6995 112.055 20.9695 112.055 21.2815C112.055 21.5815 112.049 21.8515 112.037 22.0915C111.989 22.9315 111.779 23.6575 111.407 24.2695C111.047 24.8695 110.519 25.3315 109.823 25.6555C109.139 25.9795 108.287 26.1415 107.267 26.1415ZM107.267 23.9455C107.807 23.9455 108.197 23.7835 108.437 23.4595C108.689 23.1355 108.833 22.6495 108.869 22.0015C108.881 21.8215 108.887 21.5815 108.887 21.2815C108.887 20.9815 108.881 20.7415 108.869 20.5615C108.833 19.9255 108.689 19.4455 108.437 19.1215C108.197 18.7855 107.807 18.6175 107.267 18.6175C106.739 18.6175 106.349 18.7855 106.097 19.1215C105.845 19.4455 105.707 19.9255 105.683 20.5615C105.671 20.7415 105.665 20.9815 105.665 21.2815C105.665 21.5815 105.671 21.8215 105.683 22.0015C105.707 22.6495 105.845 23.1355 106.097 23.4595C106.349 23.7835 106.739 23.9455 107.267 23.9455ZM114.276 25.9615C114.144 25.9615 114.036 25.9195 113.952 25.8355C113.868 25.7515 113.826 25.6435 113.826 25.5115V17.0515C113.826 16.9315 113.868 16.8295 113.952 16.7455C114.036 16.6495 114.144 16.6015 114.276 16.6015H116.346C116.478 16.6015 116.586 16.6495 116.67 16.7455C116.754 16.8295 116.796 16.9315 116.796 17.0515V17.7715C117.12 17.3995 117.504 17.1115 117.948 16.9075C118.404 16.7035 118.914 16.6015 119.478 16.6015H120.27C120.39 16.6015 120.492 16.6435 120.576 16.7275C120.672 16.8115 120.72 16.9195 120.72 17.0515V18.9055C120.72 19.0255 120.672 19.1335 120.576 19.2295C120.492 19.3135 120.39 19.3555 120.27 19.3555H118.524C118.032 19.3555 117.648 19.4935 117.372 19.7695C117.108 20.0335 116.976 20.4115 116.976 20.9035V25.5115C116.976 25.6435 116.928 25.7515 116.832 25.8355C116.748 25.9195 116.64 25.9615 116.508 25.9615H114.276ZM122.45 25.9615C122.318 25.9615 122.21 25.9195 122.125 25.8355C122.042 25.7515 122 25.6435 122 25.5115V17.0515C122 16.9195 122.042 16.8115 122.125 16.7275C122.21 16.6435 122.318 16.6015 122.45 16.6015H124.412C124.544 16.6015 124.652 16.6435 124.736 16.7275C124.82 16.8115 124.862 16.9195 124.862 17.0515V17.6635C125.102 17.3395 125.438 17.0575 125.87 16.8175C126.302 16.5655 126.812 16.4335 127.4 16.4215C128.78 16.3975 129.728 16.9195 130.244 17.9875C130.52 17.5315 130.916 17.1595 131.432 16.8715C131.948 16.5715 132.512 16.4215 133.124 16.4215C133.748 16.4215 134.306 16.5655 134.798 16.8535C135.302 17.1295 135.704 17.5615 136.004 18.1495C136.304 18.7255 136.454 19.4755 136.454 20.3995V25.5115C136.454 25.6435 136.406 25.7515 136.31 25.8355C136.226 25.9195 136.124 25.9615 136.004 25.9615H133.916C133.784 25.9615 133.67 25.9195 133.574 25.8355C133.49 25.7515 133.448 25.6435 133.448 25.5115V20.5255C133.448 20.1055 133.388 19.7755 133.268 19.5355C133.148 19.2835 132.986 19.1035 132.782 18.9955C132.578 18.8875 132.344 18.8335 132.08 18.8335C131.864 18.8335 131.648 18.8875 131.432 18.9955C131.228 19.1035 131.06 19.2835 130.928 19.5355C130.808 19.7755 130.748 20.1055 130.748 20.5255V25.5115C130.748 25.6435 130.706 25.7515 130.622 25.8355C130.538 25.9195 130.43 25.9615 130.298 25.9615H128.21C128.078 25.9615 127.97 25.9195 127.886 25.8355C127.802 25.7515 127.76 25.6435 127.76 25.5115V20.5255C127.76 20.1055 127.694 19.7755 127.562 19.5355C127.43 19.2835 127.262 19.1035 127.058 18.9955C126.854 18.8875 126.626 18.8335 126.374 18.8335C126.158 18.8335 125.942 18.8875 125.726 18.9955C125.522 19.1035 125.354 19.2835 125.222 19.5355C125.102 19.7755 125.042 20.0995 125.042 20.5075V25.5115C125.042 25.6435 124.994 25.7515 124.898 25.8355C124.814 25.9195 124.706 25.9615 124.574 25.9615H122.45Z" fill="#EC5863"/>
<path d="M14.2208 4.98869C15.6455 4.48917 17.2113 5.16285 17.7174 6.49273C18.1048 7.51091 17.7581 8.61769 16.9363 9.30529L17.3804 10.5163L18.0869 11.3316C18.2482 11.5182 18.4928 11.6074 18.738 11.5772C19.3991 11.4959 20.056 11.4928 20.6993 11.5604C20.9173 11.5836 21.1342 11.5116 21.2907 11.3595L21.8005 10.8661L22.1764 9.77185C21.8566 9.33293 21.7483 8.75165 21.9379 8.19933C22.2597 7.26306 23.3107 6.77916 24.2454 7.16256C25.0506 7.49245 25.4887 8.38808 25.253 9.22153C25.1032 9.75239 24.7241 10.15 24.2576 10.3468L23.8415 11.5594L23.9364 12.2276C23.969 12.4573 24.1054 12.6579 24.3046 12.7782C24.9746 13.1847 25.5899 13.6817 26.1301 14.2562C26.3116 14.4496 26.5824 14.5325 26.8427 14.4801L28.1825 14.2111L29.696 13.3717C29.7039 12.6274 30.1017 11.9079 30.8019 11.5195C31.8606 10.9326 33.2014 11.327 33.7655 12.4024C34.2748 13.3725 33.9551 14.592 33.0327 15.1892C32.3124 15.6547 31.4335 15.6377 30.7551 15.2402L29.2325 16.084L28.3823 16.9871C28.1541 17.2294 28.0728 17.572 28.1599 17.8928C28.1604 17.8947 28.1607 17.896 28.1612 17.8979C28.3102 18.4507 28.4006 19.0063 28.438 19.557C28.4597 19.8851 28.6454 20.1803 28.9362 20.3371L30.0459 20.9353L32.2454 21.35C32.6331 21.0124 33.1672 20.8491 33.7129 20.9515C34.6915 21.1363 35.3215 22.1048 35.0707 23.0797C34.8551 23.9145 34.0325 24.4703 33.1723 24.3609C32.5857 24.2863 32.1121 23.9338 31.8578 23.4598L29.6441 23.0427L28.2787 23.2089C28.027 23.24 27.8072 23.3975 27.7045 23.628C27.296 24.5379 26.7323 25.3748 26.0363 26.0973C25.8634 26.2768 25.7985 26.5338 25.8613 26.7744L26.2006 28.0843L27.0384 29.3942C27.9599 29.2563 28.9188 29.6536 29.4507 30.4856C30.1659 31.6034 29.8415 33.0834 28.7285 33.8046C27.6161 34.5257 26.1023 34.2119 25.3732 33.1081C24.8626 32.3353 24.8571 31.382 25.2709 30.6257L24.3815 29.2354L23.288 28.3384C23.126 28.2048 22.9054 28.1695 22.7078 28.2397C22.4885 28.3178 22.2649 28.3876 22.0362 28.4485C20.7935 28.7796 19.5406 28.8223 18.3489 28.6198C18.1742 28.5905 17.9955 28.6402 17.8619 28.7557L17.275 29.2642L16.8386 30.336C17.1339 30.7923 17.2093 31.3783 16.9894 31.919C16.6156 32.8366 15.5392 33.2616 14.6276 32.8274C13.8425 32.4535 13.4548 31.535 13.7365 30.7157C13.916 30.1939 14.3158 29.8178 14.7928 29.6473L15.2762 28.4594L15.1865 27.4161C14.3146 26.8717 13.5388 26.1731 12.9043 25.3474L11.4132 25.4942L10.0175 26.1823C10.0266 27.1158 9.54481 28.0039 8.69917 28.4338C7.50425 29.0407 6.03647 28.5034 5.42116 27.2331C4.80603 25.9634 5.2752 24.4421 6.47011 23.8352C7.36432 23.3809 8.41072 23.5673 9.13878 24.2224L10.455 23.573L11.3685 22.5962C11.4282 22.5323 11.4503 22.4424 11.4276 22.3584L11.4273 22.3571C11.0051 20.7902 11.0482 19.2063 11.4717 17.7506C11.4945 17.6707 11.4774 17.5846 11.4235 17.521L10.6354 16.5826L8.93757 15.6942C8.46991 15.8994 7.91549 15.8988 7.42792 15.6434C6.5471 15.182 6.22971 14.0748 6.75475 13.2157C7.21569 12.4624 8.19746 12.1764 8.99468 12.5626C9.51072 12.8124 9.84361 13.2797 9.94202 13.7966L11.6399 14.6849L12.8484 14.7983C12.9323 14.8064 13.0141 14.7711 13.0674 14.7061C13.6155 14.0312 14.268 13.4354 15.0092 12.9467C15.2126 12.8119 15.339 12.5886 15.3422 12.3453L15.3547 11.2518L14.881 9.96133C13.8541 9.88759 12.9251 9.26768 12.557 8.30058C12.0509 6.97071 12.7959 5.48757 14.2208 4.98869Z" fill="#EC5863"/>
<path d="M25.9898 18.4765C25.0729 15.0737 21.5559 13.0542 18.1342 13.966C14.7125 14.8778 12.6819 18.3756 13.5988 21.7785C14.5156 25.1813 18.0327 27.2008 21.4543 26.289C24.876 25.3772 26.9066 21.8794 25.9898 18.4765Z" fill="#F58A97"/>
<path d="M20.9484 24.4109C17.8476 25.2372 14.6687 23.6565 13.4172 20.8204C13.4527 21.1391 13.5128 21.4592 13.5988 21.7785C14.5156 25.1814 18.0326 27.2008 21.4543 26.289C24.8761 25.3771 26.9066 21.8795 25.9898 18.4765C25.9037 18.1573 25.7949 17.8502 25.6653 17.5566C26.0073 20.635 24.049 23.5847 20.9484 24.4109Z" fill="#F07281"/>
<path d="M11.324 33.496C11.0629 32.5269 10.0613 31.9518 9.08694 32.2115C8.11255 32.4711 7.53429 33.4672 7.79538 34.4362C8.05647 35.4053 9.05803 35.9804 10.0324 35.7207C11.0068 35.4611 11.5851 34.465 11.324 33.496Z" fill="#EB5569"/>
<path d="M34.1105 27.9379C33.9381 27.2979 33.2765 26.918 32.6329 27.0895C31.9893 27.261 31.6074 27.9189 31.7799 28.559C31.9523 29.1991 32.6138 29.5789 33.2574 29.4074C33.901 29.2359 34.283 28.578 34.1105 27.9379Z" fill="#EB5569"/>
<path d="M30.8428 6.00213C30.5888 5.05936 29.6144 4.49988 28.6664 4.75249C27.7184 5.0051 27.1559 5.97416 27.4099 6.91693C27.6639 7.8597 28.6383 8.41918 29.5863 8.16656C30.5343 7.91395 31.0968 6.9449 30.8428 6.00213Z" fill="#EB5569"/>
<path d="M20.1955 22.0477C19.9586 21.1687 19.0502 20.6471 18.1664 20.8826C17.2826 21.1181 16.7581 22.0216 16.9949 22.9005C17.2317 23.7795 18.1402 24.3011 19.024 24.0656C19.9078 23.8301 20.4323 22.9266 20.1955 22.0477Z" fill="#EB5569"/>
<path d="M24.3107 19.5818C24.1495 18.9835 23.5312 18.6285 22.9296 18.7888C22.3281 18.9491 21.9711 19.564 22.1323 20.1623C22.2935 20.7606 22.9118 21.1156 23.5134 20.9553C24.1149 20.795 24.4719 20.18 24.3107 19.5818Z" fill="#EB5569"/>
<path d="M19.9578 17.0961C19.8224 16.5937 19.3032 16.2956 18.798 16.4302C18.2929 16.5648 17.9931 17.0812 18.1285 17.5835C18.2638 18.0859 18.783 18.384 19.2882 18.2494C19.7933 18.1148 20.0931 17.5984 19.9578 17.0961Z" fill="#EB5569"/>
</svg>
